<svg xmlns="http://www.w3.org/2000/svg" xmlns:xlink="http://www.w3.org/1999/xlink" width="1228.479" height="1811.327" viewBox="0 0 1228.479 1811.327">
  <g>
      <path d="M1081.5,468.829a446.448,446.448,0,0,0-21.609-95.32,465.862,465.862,0,0,0-55.715-110.54,527.475,527.475,0,0,0-35.866-47.1C892.318,126.629,797.584,63.938,688.8,23.223A361.389,361.389,0,0,0,564.667,0H564.3a361.245,361.245,0,0,0-124.21,23.223c-108.77,40.715-203.5,103.407-279.571,192.641a530.566,530.566,0,0,0-34.106,44.6A469.894,469.894,0,0,0,69.965,370.712a450.485,450.485,0,0,0-22.929,101.06q-6.725,60.523,2.2,124.87c.3,2.5.67,5,.964,7.427,12.193,92.314,14.4,184.178,12.119,276.785-.88,37.709-1.613,75.848,2.357,113.41.733,7.563,1.833,15.136,2.943,22.709,30.052,97.824,88.637,253.709,119.58,316.4-8.013-13.669-68.8-117.747-108.487-195.574-5.73-3.237-11.313-6.243-17.786-9.846-1.173,7.563-2.87,13.23-2.943,18.813-.293,22.783.45,45.712.073,68.568-.22,14.78-.953,132.589,54.469,181.465,37.845,47.556,73.784,96.431,110.394,144.866,5.436,7.207,10.653,14.7,15.943,22.2,2.723,0,100.4,144.416,155.519,189.321,48,39.029,109.367,57.915,169.922,58.145h.367c60.565-.23,121.863-19.116,169.859-58.145,55.191-44.905,152.869-189.321,155.519-189.321,5.29-7.5,10.433-14.989,16.016-22.2,36.525-48.435,72.475-97.31,110.247-144.866,55.5-48.875,54.752-166.685,54.532-181.465-.293-22.856.293-45.785.073-68.568,0-5.583-1.687-11.25-3.006-18.812-6.327,3.6-11.91,6.609-17.713,9.846-39.615,77.827-100.4,181.9-108.56,195.574,31.089-62.691,89.59-218.577,119.727-316.4,1.1-7.573,2.137-15.147,2.87-22.709,3.97-37.562,3.236-75.7,2.346-113.41-2.273-93.561-.073-186.461,12.5-279.8.22-1.466.367-2.943.587-4.41,6.033-43.879,6.693-86.574,1.843-127.813m-69.458,230.12a2.209,2.209,0,0,0-.293.587v1.7a17.775,17.775,0,0,0-.22-2.064c.22-.073.367-.22.513-.22m-346.9,526.975c7.06,4.043,15.44,6.913,20.876,12.5,18.3,18.886,20.5,66.881,2.419,86.061-22.123,23.516-45.272,46.592-70.484,66.588-17.713,14.036-35.5,21.1-53.285,21.316H564.3c-17.859-.22-35.572-7.28-53.285-21.316-25.276-20-48.352-43.072-70.548-66.588-18.163-19.179-15.88-67.175,2.42-86.061,5.437-5.583,13.816-8.453,20.8-12.5-22.929,31.676-26.9,60.188-8.673,80.844,16.76-35.205,63.791,46.3,109.283,46.6h.367c45.5-.3,92.461-81.808,109.294-46.6,18.153-20.656,14.183-49.168-8.82-80.844M500.729,934.066c38.589,22.563,35.719,63.645-.293,108.55,4.337-18.886,11.983-37.7,12.056-56.511.147-17.566-7.72-35.206-11.763-52.039m12.35,240.846c10.506,35.719,8.893,41.606-13.6,49.608-.367-5.143-1.33-7.856-.587-10.066,4.263-12.643,8.966-25.056,14.183-39.542m115.463-132.3c-36.086-44.905-38.882-85.987-.367-108.55-4.043,16.833-11.91,34.472-11.763,52.039.147,18.813,7.72,37.625,12.13,56.511m.88,181.9c-22.416-8-24.1-13.89-13.6-49.608,5.216,14.486,9.92,26.9,14.256,39.542.66,2.21-.293,4.923-.66,10.066M116.934,698.949c.147,0,.22.147.44.22-.073.66-.22,1.33-.293,2.064v-1.7a.882.882,0,0,0-.147-.587M293.1,1554.224c-55.265-65.551-61.361-157.132-23.149-228.13,0,19.263-5.876,46.236-5.51,65.488.367,18.446,11.763,95.917,16.393,114.583,4.41,17.713,14.4,28.146,12.266,48.058M184.549,918.773c-3.237-5.07-11.763-7.049-19.556-11.533,10.957-8.086,21.023-15.5,30.723-22.563-15.5-32.262-44.539-32.336-85.4-13.89,8.306,13.083,16.1,25.8,25.066,40.055-52.992-23.663-55.935-78.351-26.313-125.236-1.76,18.373-3.31,34.315-4.85,50.268,2.2,1.393,4.41,2.8,6.536,4.117,5.814-7.5,10.81-15.953,17.713-22.343,28.669-27.046,62.251-43.366,102.454-39.4a334.587,334.587,0,0,1,59.319,11.836c28.659,8.3,56.888,18.153,84.961,28.439,14.769,5.437,28.219,14.256,42.988,19.63,13.607,4.923,26.313,15.5,42.559,8.527,11.177,18.959,23.956,35.562,28.146,61.215-45.639-9.993-61.8-19.986-104.36-29.319,32.7,21.819,32.7,81.871,27.559,99.657-14.109,2.2-23.736-1.026-30.723-11.25-24.836,4.054-49.755,11.4-74.675,11.25-49.242-.293-93.634-14.036-122.146-59.465m380.119,635.609H564.3a490.077,490.077,0,0,1-113.693-13.89H678.224a488.454,488.454,0,0,1-113.557,13.89m90.848-80.184c-30.283.147-60.565.073-90.848,0H564.3c-30.272.073-60.555.147-90.91,0-49.755-.23-99.584-2.357-145.672,25.726,3.31-20.51,2.87-22.049,15.586-25.506,24.4-6.693,49.388-15.66,74.3-16.1q73.313-1.32,146.7-1.32h.367q73.2,0,146.7,1.32c24.846.44,49.766,9.406,74.235,16.1,12.716,3.457,12.276,5,15.586,25.506-46.089-28.083-95.917-25.957-145.672-25.726m180.208,80.027c-2.126-19.912,8.013-30.345,12.35-48.058,4.7-18.666,16.1-96.137,16.393-114.583.293-19.253-5.51-46.225-5.51-65.488,38.285,71,32.116,162.579-23.233,228.13m157.8-643.381c8.893-14.256,16.833-26.972,24.993-40.055-40.8-18.446-69.752-18.373-85.338,13.89,9.783,7.06,19.7,14.476,30.8,22.563-7.93,4.483-16.383,6.463-19.546,11.533-28.586,45.429-72.978,59.172-122.3,59.465-24.762.147-49.682-7.2-74.591-11.25-6.987,10.223-16.686,13.45-30.649,11.25-5.29-17.786-5.29-77.838,27.486-99.657C701.74,887.914,685.724,897.907,640,907.9c4.263-25.653,16.98-42.255,28.156-61.215,16.236,6.976,28.952-3.6,42.549-8.527,14.706-5.374,28.229-14.193,42.926-19.63,28.072-10.286,56.375-20.143,85.107-28.439a332.568,332.568,0,0,1,59.235-11.836c40.286-3.97,73.795,12.35,102.538,39.4,6.9,6.39,11.753,14.843,17.64,22.343,2.126-1.32,4.337-2.724,6.536-4.117-1.54-15.953-3.09-31.9-4.776-50.268,29.622,46.885,26.606,101.574-26.386,125.236" transform="translate(49.786)" fill="currentColor"/>
      <path   d="M166.747,85.861c-41.5,2.367-57.255,22.154-57.1,65.7,5.2.419,12.214-1.529,11.962-2.367,6.39.377,12.842.283,19.137,1.215,46.309,6.924,91.141,3.383,133.05-19.284,12.915-7,24.93-15.5,31.561-34.033-13.366-3.907-24.689-9.584-36.253-10.129-34.074-1.613-68.358-3.038-102.36-1.1" transform="translate(670.399 804.651)" fill="currentColor"/>
      <path  d="M237.88,119.5a72.22,72.22,0,0,0-6.327-30.555c-9.773-22.049-40.6-29.7-54.689-12.444-19.588,24.008-32.9,52.332-33.394,84.039-.377,25.433,2.786,50.855,4.368,76.288,1.257.22,2.451.388,3.656.545,2.891-9.113,5.29-18.446,8.621-27.392,10.1-27.182,19.923-54.469,31.163-81.148a81.645,81.645,0,0,1,17.954-25.705c9.281-9.061,16.644-5.29,20.9,6.662-11.135,3.488-19.755,13.313-23.023,24.605a24.973,24.973,0,0,0-.66,2.682.686.686,0,0,0-.052.325c0,.1-.052.157-.052.272-11.407,42.507-12.989,112.687-18.561,155.529v.052a98.193,98.193,0,0,1-6.379,22.866c-1.152,6.222-2.074,12.444-2.943,18.718-3.876,27.234-6.882,54.626-20.091,79.891-4.64,8.841-4.305,20.248-6.222,30.45,22.27-35.96,50.321-69.029,60.743-111.818,0-.052.052-.1.052-.157v-.063a55.606,55.606,0,0,0,2.346-11.784.939.939,0,0,0,.052-.377.639.639,0,0,0,.063-.335c.649-4.42,1.142-8.945,1.362-13.586a.507.507,0,0,1,.052-.272c5.017-46.6,19.535-169.387,19.535-169.387H236.3c.817-6,1.362-11.952,1.582-17.9" transform="translate(990.572 635.227)" fill="currentColor"/>
      <path d="M255.026,151.559c.157-43.544-15.607-63.33-57.108-65.7-34.012-1.938-68.275-.513-102.349,1.1-11.575.545-22.9,6.232-36.264,10.129,6.63,18.53,18.635,27.046,31.571,34.033,41.9,22.678,86.721,26.208,133.05,19.295,6.285-.943,12.737-.848,19.116-1.226-.23.838,6.777,2.8,11.983,2.367" transform="translate(193.412 804.651)" fill="currentColor"/>
      <path d="M41.536,88.941A72.092,72.092,0,0,0,35.209,119.5c.22,5.95.765,11.9,1.582,17.9h-.063S51.246,260.182,56.274,306.784a.545.545,0,0,1,.052.283c.22,4.63.712,9.165,1.362,13.586a.707.707,0,0,0,.052.325.941.941,0,0,0,.052.377,55.785,55.785,0,0,0,2.357,11.795v.052c0,.052.052.1.052.168,10.422,42.779,38.474,75.848,60.733,111.807-1.906-10.2-1.582-21.609-6.222-30.45-13.2-25.265-16.2-52.657-20.08-79.891-.869-6.274-1.8-12.5-2.943-18.718a98.588,98.588,0,0,1-6.39-22.866V293.2c-5.562-42.831-7.144-113.012-18.551-155.529,0-.1-.052-.157-.052-.272a.6.6,0,0,0-.063-.325,22.506,22.506,0,0,0-.649-2.671c-3.279-11.3-11.9-21.117-23.034-24.616,4.263-11.952,11.627-15.712,20.908-6.652a81.654,81.654,0,0,1,17.954,25.695c11.239,26.69,21.065,53.976,31.162,81.148,3.32,8.956,5.73,18.289,8.621,27.4,1.194-.168,2.4-.335,3.656-.545,1.582-25.433,4.745-50.865,4.368-76.3-.492-31.707-13.816-60.031-33.4-84.039C82.136,59.255,51.309,66.891,41.536,88.941" transform="translate(-35.174 635.221)" fill="currentColor"/>
  </g>
</svg>
