<svg xmlns="http://www.w3.org/2000/svg" xmlns:xlink="http://www.w3.org/1999/xlink" width="1255.757" height="567.942" viewBox="0 0 1255.757 567.942">
  <g >
    <path d="M31.36,510.121V57.351Q30.594,28.991,3,1H342.669C314.281,23.711,257.5,86.166,257.5,140.1l-.341,30.347H172.451q28.36-27.977,28.36-56.351V57.749H87.712v452h113.1V311.912c-13.03,0-8.715-.4-42.015,5.451s-39.829-6.047-41.816-8.346c-14.393-16.3-11.072-36.706-11.781-46.472,4.6,3.832,10.93,5.28,16.863,5.791h.057c7.353.625,14.081-.256,16.153-.028,21.291-1.874,24.13-10.39,50.56-12.6,18.992-.625,40.766,5,51.781,16.011A54.469,54.469,0,0,1,254.977,295.7a57.8,57.8,0,0,1,2.186,16.21V412.634c.795,19.191,94.023,130.588,113.895,153.469H3q27.168-27.211,28.36-55.982" transform="translate(5.517 1.839)" fill="currentColor"/>
    <path d="M534.45,17.551A54.2,54.2,0,0,0,494.649,1H230.522C290.138,32.227,324.2,111.715,325.2,140.1V423.99C312.849,463.734,247.555,529.028,210.65,566.1h284A56.508,56.508,0,0,0,551,509.752V57.351a54.243,54.243,0,0,0-16.551-39.8m-39.8,492.2h-113.1V57.351h113.1Z" transform="translate(387.355 1.839)" fill="currentColor"/>
    <path d="M338.12,1q28.36,28.36,28.389,56.749v112.7H451.22q-28.36-27.977-28.36-56.351V57.749h96.152l-50.049,166.3q31.511-9.879,59.9-10.646l46.5-155.655Q584.008,29.389,620.671,1ZM592.311,509.752v-113.1h-84.74q28.36,28.36,28.389,56.351v56.749H439.808l65.407-218.337q8.815-3.066,16.778-5.451,30.148-9.113,48.232-9.113,15.372,0,22.086,6.7,0-24.443-17.743-40.993Q558,227.186,535.96,227.2q-40.2,0-106,24.812-25.635,9.453-37.047,11.043a40.339,40.339,0,0,1-5.536.4q-12.988,0-20.866-7.892,0,24.443,17.714,40.993,16.565,15.372,38.637,15.358a105.74,105.74,0,0,0,11.526-.681c1.022-.114,2.1-.255,3.151-.4,1.874-.255,3.8-.539,5.794-.88L383.059,510.121Q373.18,538.907,338.12,566.1H620.671q-28.36-28.4-28.36-56.351" transform="translate(621.754 1.839)" fill="currentColor"/>
    <path d="M402.85,67.678C379,39.687,349.337,20.042,315.214,7.3A112.109,112.109,0,0,0,276.294,0h-.085a112.142,112.142,0,0,0-38.949,7.3c-34.095,12.746-63.789,32.391-87.635,60.382-29.439,34.606-40.993,74.861-34.89,119.346,4.088,29.723,4.854,59.3,4.116,89.083-.312,11.838-.539,23.79.738,35.543.227,2.385.539,4.769.88,7.154,9.51,30.858,28.02,80.056,37.7,99.5-1.476-2.527-21.377-36.479-34.208-61.632-1.817-1.022-3.549-1.987-5.536-3.094a40.475,40.475,0,0,0-.937,5.876c-.085,7.154.114,14.365.028,21.519-.085,4.627-.312,41.561,17.062,56.891,11.866,14.876,23.108,30.205,34.577,45.393,1.732,2.271,3.378,4.627,5.025,6.955.852,0,31.455,45.28,48.772,59.332,15.018,12.264,34.237,18.169,53.257,18.225h.085c18.992-.057,38.211-5.962,53.257-18.225,17.289-14.052,47.92-59.332,48.743-59.332,1.675-2.328,3.293-4.684,5.025-6.955,11.469-15.188,22.711-30.518,34.577-45.393,17.4-15.33,17.147-52.263,17.062-56.891-.085-7.154.114-14.365.057-21.519a45.436,45.436,0,0,0-.965-5.876c-1.987,1.107-3.719,2.072-5.536,3.094-12.832,25.152-32.7,59.105-34.237,61.632,9.737-19.446,28.218-68.644,37.728-99.5.312-2.385.653-4.769.908-7.154,1.249-11.753.994-23.7.71-35.543-.71-29.78.029-59.361,4.116-89.083,6.1-44.485-5.451-84.74-34.89-119.346M296.591,383.842c-7.012-2.5-7.523-4.372-4.258-15.529,1.647,4.514,3.123,8.431,4.457,12.377.227.681-.085,1.561-.2,3.151m-.369-91.042c-1.277,5.28-3.747,10.816-3.69,16.3.028,5.9,2.413,11.81,3.776,17.743-11.3-14.081-12.179-26.969-.085-34.038M276.294,424.239c14.251-.114,28.985-25.635,34.265-14.592,5.706-6.5,4.457-15.443-2.754-25.379,2.214,1.306,4.826,2.186,6.529,3.946,5.763,5.9,6.444,20.951.766,26.969a207.489,207.489,0,0,1-22.115,20.866c-5.536,4.4-11.1,6.615-16.692,6.7h-.085c-5.621-.085-11.185-2.3-16.721-6.7a210.232,210.232,0,0,1-22.115-20.866c-5.678-6.018-5-21.064.766-26.969,1.7-1.76,4.343-2.64,6.5-3.946-7.182,9.936-8.431,18.878-2.725,25.379,5.28-11.043,20.014,14.478,34.293,14.592ZM256.251,292.8c12.094,7.069,11.214,19.957-.085,34.038,1.363-5.933,3.747-11.838,3.776-17.743.057-5.479-2.413-11.015-3.691-16.3m-.568,87.891c1.334-3.946,2.81-7.864,4.457-12.377,3.265,11.157,2.754,13.03-4.258,15.529-.142-1.59-.426-2.47-.2-3.151M191.185,487.2a64.234,64.234,0,0,1-7.268-71.511c0,6.018-1.817,14.507-1.7,20.525.085,5.763,3.662,30.063,5.11,35.911,1.363,5.564,4.542,8.829,3.861,15.074M157.147,288c-1.022-1.59-3.662-2.214-6.132-3.605,3.435-2.527,6.586-4.854,9.624-7.1-4.854-10.078-13.939-10.106-26.742-4.343,2.583,4.088,5.025,8.091,7.864,12.576-16.636-7.409-17.573-24.585-8.289-39.261-.539,5.734-1.022,10.759-1.476,15.756.681.426,1.363.88,2.016,1.306,1.845-2.385,3.407-5,5.536-7.012,9-8.488,19.531-13.6,32.136-12.377a106.792,106.792,0,0,1,18.594,3.719c9,2.612,17.856,5.706,26.657,8.914,4.6,1.7,8.829,4.485,13.456,6.16,4.258,1.561,8.261,4.883,13.343,2.668,3.52,5.933,7.495,11.157,8.829,19.191-14.308-3.123-19.361-6.245-32.732-9.2,10.277,6.842,10.277,25.663,8.659,31.256-4.4.681-7.438-.312-9.624-3.549-7.807,1.277-15.642,3.577-23.421,3.549-15.443-.085-29.354-4.4-38.3-18.651M276.294,487.233h-.085a153.14,153.14,0,0,1-35.656-4.343h71.369a153.087,153.087,0,0,1-35.628,4.343m28.474-25.124c-9.482.057-18.992.028-28.474,0h-.085c-9.51.028-19.02.057-28.5,0-15.614-.085-31.227-.71-45.677,8.062,1.05-6.416.908-6.927,4.883-8.006,7.665-2.072,15.5-4.911,23.307-5.025q22.952-.426,45.989-.426h.085q22.995,0,45.99.426c7.807.114,15.614,2.952,23.279,5.025,3.974,1.079,3.832,1.59,4.883,8.006-14.421-8.772-30.064-8.147-45.677-8.062m56.522,25.1c-.681-6.245,2.5-9.51,3.861-15.074,1.476-5.848,5.053-30.149,5.11-35.911.114-6.018-1.7-14.507-1.7-20.525a64.234,64.234,0,0,1-7.267,71.511m49.453-201.672c2.782-4.485,5.28-8.488,7.835-12.576-12.8-5.763-21.888-5.734-26.742,4.343,3.038,2.243,6.189,4.571,9.652,7.1-2.5,1.391-5.138,2.016-6.16,3.605-8.942,14.251-22.853,18.566-38.3,18.651-7.807.028-15.614-2.271-23.421-3.549-2.186,3.236-5.223,4.23-9.6,3.549-1.647-5.593-1.647-24.414,8.63-31.256-13.371,2.952-18.4,6.075-32.732,9.2,1.334-8.034,5.337-13.257,8.829-19.191,5.11,2.214,9.084-1.107,13.343-2.668,4.627-1.675,8.857-4.457,13.456-6.16,8.8-3.208,17.658-6.3,26.657-8.914a106.266,106.266,0,0,1,18.594-3.719c12.6-1.221,23.137,3.889,32.136,12.377,2.158,2.016,3.691,4.627,5.536,7.012.653-.426,1.363-.88,2.044-1.306-.483-5-.965-10.021-1.5-15.756,9.283,14.677,8.375,31.852-8.261,39.261" transform="translate(208.072)" fill="currentColor"/>
    <path d="M206.808,98.52c-13.01.741-17.947,6.944-17.9,20.593,1.63.133,3.827-.48,3.753-.744,2,.122,4.023.091,6,.386,14.518,2.169,28.57,1.059,41.706-6.047,4.051-2.192,7.818-4.86,9.9-10.668-4.19-1.224-7.739-3.006-11.364-3.177a308.729,308.729,0,0,0-32.088-.343" transform="translate(347.376 180.625)" fill="currentColor"/>
    <path d="M257.6,93.988a22.639,22.639,0,0,0-1.984-9.578c-3.063-6.913-12.727-9.306-17.141-3.9-6.14,7.526-10.314,16.4-10.47,26.342-.119,7.972.874,15.943,1.371,23.915.392.068.769.122,1.144.173.908-2.859,1.661-5.783,2.7-8.588,3.165-8.519,6.246-17.073,9.769-25.439a25.624,25.624,0,0,1,5.627-8.057c2.91-2.839,5.218-1.658,6.552,2.087a11.384,11.384,0,0,0-7.219,7.716,7.485,7.485,0,0,0-.2.837.216.216,0,0,0-.017.1c0,.037-.017.054-.017.088-3.574,13.326-4.071,35.324-5.817,48.752v.017a30.79,30.79,0,0,1-2,7.168c-.358,1.95-.65,3.9-.923,5.868-1.215,8.534-2.155,17.121-6.3,25.042-1.453,2.771-1.351,6.348-1.947,9.547,6.978-11.273,15.77-21.641,19.037-35.051,0-.017.017-.034.017-.051v-.017a17.371,17.371,0,0,0,.735-3.7.289.289,0,0,0,.017-.119.216.216,0,0,0,.017-.1,42.058,42.058,0,0,0,.429-4.261A.154.154,0,0,1,251,152.7c1.573-14.609,6.123-53.1,6.123-53.1H257.1a56.208,56.208,0,0,0,.5-5.61" transform="translate(419.248 142.594)" fill="currentColor"/>
    <path d="M192.032,119.113c.048-13.649-4.891-19.852-17.9-20.593a308.728,308.728,0,0,0-32.088.343c-3.625.17-7.174,1.953-11.364,3.177,2.078,5.808,5.845,8.477,9.9,10.668,13.135,7.106,27.188,8.216,41.706,6.047,1.973-.3,4-.264,6-.386-.074.264,2.124.877,3.753.744" transform="translate(240.304 180.625)" fill="currentColor"/>
    <path d="M104.769,84.409a22.648,22.648,0,0,0-1.984,9.578,56.329,56.329,0,0,0,.5,5.612h-.017s4.548,38.489,6.123,53.1a.154.154,0,0,1,.017.085,42.07,42.07,0,0,0,.429,4.258.216.216,0,0,0,.017.1.3.3,0,0,0,.017.122,17.342,17.342,0,0,0,.735,3.693v.017c0,.017.017.034.017.051,3.268,13.414,12.059,23.778,19.037,35.051-.6-3.2-.494-6.774-1.95-9.544-4.139-7.92-5.079-16.508-6.294-25.044-.273-1.967-.565-3.918-.923-5.868a30.751,30.751,0,0,1-2-7.168v-.017c-1.746-13.428-2.243-35.426-5.817-48.752,0-.034-.017-.051-.017-.085a.216.216,0,0,0-.017-.1,7.538,7.538,0,0,0-.2-.84,11.374,11.374,0,0,0-7.219-7.713c1.334-3.747,3.642-4.928,6.549-2.087a25.523,25.523,0,0,1,5.629,8.057c3.523,8.363,6.6,16.917,9.768,25.436,1.042,2.8,1.794,5.732,2.7,8.588.375-.051.752-.1,1.144-.17.5-7.972,1.49-15.943,1.371-23.915-.156-9.939-4.329-18.819-10.47-26.345-4.414-5.405-14.078-3.009-17.141,3.9" transform="translate(188.99 142.595)" fill="currentColor"/>
  </g>
</svg>
