<svg xmlns="http://www.w3.org/2000/svg" width="40" height="23.66" viewBox="0 0 40 23.66">
  <g id="ME-logo" transform="translate(-17 8.934)">
    <path id="Path_195" data-name="Path 195" d="M38.341,16.024l2.343,2.711c.268.3.506.555.6.7a3.6,3.6,0,0,1,1.093,2.578,4.8,4.8,0,0,1-1.518,2.745l-1.639,1.9-.855.982a.228.228,0,0,0-.057.12.225.225,0,0,0,.021.131.233.233,0,0,0,.091.1.244.244,0,0,0,.132.033H47.1a2.729,2.729,0,0,1,2,4.708,2.955,2.955,0,0,1-2.047.827H33.671c-.88,0-3.249.093-3.911-1.9A2.3,2.3,0,0,1,29.7,30.37a5.557,5.557,0,0,1,.9-1.748c.673-.982,1.4-1.965,2.12-2.917.926-1.248,1.877-2.456,2.813-3.728a.23.23,0,0,0,0-.29l-3.4-3.929a.236.236,0,0,0-.084-.067.244.244,0,0,0-.212,0,.236.236,0,0,0-.084.067c-.911,1.193-4.9,6.478-5.748,7.549a2.958,2.958,0,0,1-4.1,0l-5.318-5.182a.245.245,0,0,0-.124-.065.249.249,0,0,0-.141.013.241.241,0,0,0-.109.087.231.231,0,0,0-.041.131v9.965a3.319,3.319,0,0,1-.617,1.983,3.48,3.48,0,0,1-1.69,1.264,2.993,2.993,0,0,1-1.365.129,2.96,2.96,0,0,1-1.274-.493,2.851,2.851,0,0,1-.9-1A2.758,2.758,0,0,1,10,30.841V12.925a3.022,3.022,0,0,1,.684-1.772,3.175,3.175,0,0,1,1.623-1.047,3.323,3.323,0,0,1,1.678,0,3.251,3.251,0,0,1,1.449.821l8.177,7.947a.239.239,0,0,0,.087.055.244.244,0,0,0,.2-.016.236.236,0,0,0,.076-.068l5.809-7.8a2.888,2.888,0,0,1,.986-.75,2.972,2.972,0,0,1,1.22-.276H47.1a2.979,2.979,0,0,1,1.2.253,2.9,2.9,0,0,1,.984.711,2.8,2.8,0,0,1,.594,1.042,2.739,2.739,0,0,1,.1,1.187,2.862,2.862,0,0,1-1.015,1.771,3.026,3.026,0,0,1-1.965.685h-8.46a.243.243,0,0,0-.12.035.234.234,0,0,0-.085.089.225.225,0,0,0,.013.234Z" transform="translate(7 -18.933)" fill="currentColor"/>
  </g>
</svg>
