<svg xmlns="http://www.w3.org/2000/svg" width="28" height="22.755" viewBox="0 0 28 22.755">
  <path  d="M30.571,7.511a11.485,11.485,0,0,1-3.3.9A5.762,5.762,0,0,0,29.8,5.237a11.5,11.5,0,0,1-3.648,1.394,5.75,5.75,0,0,0-9.789,5.239,16.309,16.309,0,0,1-11.84-6A5.751,5.751,0,0,0,6.3,13.538a5.721,5.721,0,0,1-2.6-.719c0,.024,0,.048,0,.072A5.748,5.748,0,0,0,8.3,18.525a5.754,5.754,0,0,1-2.594.1,5.75,5.75,0,0,0,5.366,3.989,11.525,11.525,0,0,1-7.134,2.459,11.652,11.652,0,0,1-1.37-.08,16.259,16.259,0,0,0,8.806,2.581c10.566,0,16.344-8.753,16.344-16.345q0-.374-.017-.743a11.67,11.67,0,0,0,2.867-2.974Z" transform="translate(-2.571 -4.817)" fill="currentColor"/>
</svg>
